<svg width="248" height="51" viewBox="0 0 248 51" fill="none" xmlns="http://www.w3.org/2000/svg">
<g clip-path="url(#clip0)">
<path fill-rule="evenodd" clip-rule="evenodd" d="M244.483 16.6229C242.424 16.5192 240.729 18.046 240.658 20.2114C240.589 22.2932 242.349 24.0726 244.158 23.9967C246.141 24.1456 247.909 22.4315 247.996 20.5062C248.041 19.5226 247.696 18.5614 247.038 17.8333C246.379 17.1053 245.46 16.67 244.483 16.6229ZM244.314 23.6213C243.662 23.6209 243.024 23.4254 242.482 23.0597C241.941 22.6941 241.519 22.1746 241.271 21.5674C241.023 20.9602 240.96 20.2925 241.09 19.6492C241.22 19.0058 241.537 18.4158 242 17.9539C242.464 17.4921 243.053 17.1793 243.694 17.0552C244.334 16.9311 244.997 17.0014 245.598 17.2571C246.199 17.5127 246.711 17.9423 247.068 18.4912C247.426 19.0401 247.614 19.6836 247.608 20.3401C247.597 21.2129 247.246 22.0466 246.63 22.6606C246.013 23.2747 245.181 23.6198 244.314 23.6213Z" fill="#C82327"/>
<path fill-rule="evenodd" clip-rule="evenodd" d="M245.394 20.3852C246.019 20.0568 246.178 19.5287 246.031 18.9151C245.891 18.3389 245.387 18.1795 244.886 18.1382C244.288 18.0892 243.683 18.1219 243.081 18.1123C242.926 18.1123 242.865 18.1651 242.866 18.3264C242.869 19.6458 242.869 20.9658 242.866 22.2865C242.866 22.4382 242.909 22.5112 243.075 22.5102C243.24 22.5093 243.307 22.468 243.298 22.2999C243.288 22.1607 243.298 22.0205 243.298 21.8803C243.298 20.4447 243.298 20.4447 244.72 20.5475C244.751 20.5475 244.782 20.5475 244.816 20.5532C245.177 20.6022 245.423 20.7683 245.445 21.1688C245.462 21.4943 245.486 21.8189 245.503 22.1434C245.523 22.5074 245.66 22.6994 246.083 22.5323C245.693 21.863 246.212 20.9373 245.394 20.3852ZM245.153 20.0712C244.825 20.1893 244.485 20.1672 244.146 20.1672C243.296 20.1672 243.296 20.1672 243.296 19.3328C243.296 18.4983 243.296 18.4877 244.139 18.4897C244.478 18.4897 244.819 18.4628 245.147 18.5809C245.298 18.6366 245.429 18.7377 245.522 18.8705C245.614 19.0032 245.664 19.1614 245.665 19.3236C245.665 19.4858 245.617 19.6443 245.525 19.7778C245.434 19.9112 245.304 20.0133 245.153 20.0702V20.0712Z" fill="#C82227"/>
<path fill-rule="evenodd" clip-rule="evenodd" d="M154.708 13.0979C154.711 15.7654 154.716 18.4337 154.721 21.1025C154.848 21.1851 154.991 21.1486 155.127 21.1486C159.925 21.1486 164.723 21.1486 169.521 21.1486C169.657 21.1486 169.8 21.1861 169.927 21.1025L169.944 13.0892C170.428 12.9807 170.931 12.9807 171.415 13.0892C171.415 20.4697 171.413 27.8499 171.409 35.2298C171.409 35.8674 171.413 36.504 171.415 37.1416C170.961 37.2456 170.49 37.2508 170.034 37.157V37.1618C169.938 37.0043 169.985 36.8286 169.985 36.6625C169.981 32.2082 169.979 27.7536 169.979 23.2986C169.979 23.1315 170.026 22.9568 169.933 22.7974C168.916 22.7916 167.898 22.781 166.88 22.781C163.023 22.781 159.166 22.781 155.31 22.781C155.142 22.781 154.974 22.7993 154.805 22.8099C154.71 22.9693 154.759 23.145 154.759 23.3121C154.755 27.7932 154.754 32.2744 154.754 36.7556C154.754 36.9236 154.794 37.0975 154.713 37.2607C154.332 37.2607 153.94 37.2424 153.554 37.2655C153.281 37.2818 153.197 37.1752 153.231 36.9208C153.237 36.8277 153.237 36.7344 153.231 36.6413C153.231 28.7884 153.231 20.9358 153.231 13.0834C153.728 12.997 154.218 12.9653 154.708 13.0979Z" fill="#CD2227"/>
<path fill-rule="evenodd" clip-rule="evenodd" d="M222.65 20.8711C222.641 20.9009 222.619 20.9345 222.626 20.9604C222.918 22.0609 222.3 22.7676 221.619 23.5003C219.44 25.8433 217.292 28.217 215.14 30.585C213.626 32.253 212.124 33.9325 210.56 35.6744H222.654C222.741 36.1986 222.741 36.7336 222.654 37.2578H208.455C208.388 36.6678 208.39 36.0719 208.461 35.4823L220.471 22.323H208.449C208.362 21.8611 208.434 21.3944 208.409 20.9306C208.4 20.7492 208.484 20.6771 208.659 20.6877C208.755 20.6935 208.845 20.6877 208.937 20.6877C213.326 20.6877 217.712 20.6877 222.095 20.6877C222.288 20.6906 222.547 20.5657 222.65 20.8711Z" fill="#CD2227"/>
<path fill-rule="evenodd" clip-rule="evenodd" d="M118.342 37.1282C118.35 34.7384 118.357 32.3484 118.362 29.958C118.362 29.0429 118.35 28.1287 118.342 27.2136C118.431 26.9898 118.332 26.7469 118.41 26.5222C118.526 24.9858 119.186 23.6875 120.289 22.662C122 21.0747 124.055 20.3132 126.386 20.4659C129.273 20.6579 131.968 22.9568 132.542 25.8903C132.567 25.9789 132.599 26.0653 132.638 26.1487C132.715 26.3033 132.622 26.4838 132.71 26.6374V37.2338C132.233 37.3971 131.739 37.2885 131.254 37.2943C131.019 37.2943 131.1 37.0638 131.099 36.9275C131.092 36.0104 131.099 35.0924 131.099 34.1754C131.099 31.9054 131.099 29.6356 131.099 27.3663C131.099 27.1972 131.132 27.0244 131.061 26.8592C130.913 25.3516 130.164 24.2022 129.006 23.2669C128.243 22.6533 127.415 22.2452 126.448 22.1194C125.967 22.0546 125.48 22.0546 124.999 22.1194C122.814 22.2971 120.869 24.0217 120.192 26.2293C120.032 26.7945 119.958 27.3808 119.971 27.9683C119.966 30.9406 119.966 33.9129 119.971 36.8852C119.976 36.9623 119.986 37.039 120.001 37.1147C119.459 37.2705 118.886 37.2752 118.342 37.1282Z" fill="#085782"/>
<path fill-rule="evenodd" clip-rule="evenodd" d="M199.478 12.5169C199.811 12.5083 200.146 12.5006 200.476 12.491C200.692 12.4823 200.92 12.3709 201.115 12.562C201.103 12.8549 201.085 13.1487 201.082 13.4416C201.082 14.0783 201.082 14.0783 200.473 14.1138C200.186 14.1945 199.893 14.0811 199.614 14.1801C197.1 14.3721 195.4 16.2398 195.271 18.6491C195.184 19.2175 195.251 19.7899 195.233 20.3602C195.225 20.6733 195.468 20.5859 195.632 20.5859C197.309 20.5907 198.986 20.5859 200.663 20.5955C200.812 20.5955 201.002 20.488 201.118 20.6915C201.107 21.1102 201.072 21.5289 201.092 21.9456C201.106 22.2615 200.996 22.3297 200.7 22.3297C199.016 22.3163 197.332 22.3297 195.647 22.3172C195.361 22.3172 195.256 22.3739 195.257 22.6927C195.271 27.5125 195.276 32.3324 195.272 37.1522C194.725 37.2596 194.162 37.2618 193.614 37.1589C193.614 31.1861 193.626 25.2134 193.606 19.2396C193.606 18.0585 193.746 16.9091 194.284 15.8701C195.143 14.2041 196.471 13.0748 198.361 12.7224C198.573 12.6821 198.783 12.6369 198.994 12.5947C199.146 12.514 199.325 12.6033 199.478 12.5169Z" fill="#CD2227"/>
<path fill-rule="evenodd" clip-rule="evenodd" d="M112.782 21.1083C113.164 21.1083 113.557 21.1342 113.942 21.1083C114.274 21.0833 114.35 21.1985 114.348 21.5221C114.337 24.9147 114.341 28.3073 114.341 31.7008V37.1628C113.821 37.2511 113.289 37.2511 112.768 37.1628L112.774 37.1676C112.678 37.0408 112.723 36.8958 112.723 36.7604C112.723 31.6755 112.723 26.5916 112.723 21.5087C112.721 21.3743 112.669 21.2264 112.782 21.1083Z" fill="#085782"/>
<path fill-rule="evenodd" clip-rule="evenodd" d="M149.285 27.2357C149.285 25.198 149.277 23.1613 149.293 21.1236C149.293 20.7847 149.22 20.6685 148.861 20.6742C147.502 20.6963 146.142 20.6742 144.782 20.6858C144.289 20.6858 143.794 20.6493 143.302 20.7136C142.859 20.7511 142.411 20.7655 141.967 20.8308C140.189 21.0929 138.572 21.7372 137.273 23.0182C135.883 24.3885 135.026 26.043 134.834 28.0163C134.785 28.5119 134.785 29.0111 134.834 29.5066C134.907 29.8639 134.85 30.2307 134.951 30.5927C135.168 31.3763 135.355 32.1742 135.763 32.88C136.306 33.8396 137.038 34.678 137.913 35.344C138.746 35.9794 139.682 36.4641 140.68 36.7767C141.66 37.0792 142.659 37.1541 143.671 37.1848C144.48 37.2501 145.293 37.1896 146.1 37.2156C146.617 37.2328 147.137 37.1522 147.651 37.2617C147.691 38.1027 147.688 38.9453 147.643 39.7862C147.571 39.9408 147.663 40.1184 147.573 40.2663C147.355 41.6951 146.804 42.9608 145.71 43.9306C144.896 44.6508 143.964 45.1444 142.847 45.2039C142.28 45.2725 141.707 45.2725 141.139 45.2039C140.942 45.2031 140.745 45.1851 140.551 45.1501C139.257 44.9053 138.295 44.1371 137.511 43.1422C136.899 42.3683 136.461 41.4858 136.417 40.4612C136.334 40.3057 136.417 40.127 136.348 39.9696C136.371 39.6815 136.264 39.5528 135.957 39.5855C135.713 39.6196 135.464 39.6196 135.22 39.5855C134.764 39.5086 134.612 39.6969 134.671 40.1261C134.756 40.2807 134.665 40.4622 134.743 40.6177C134.737 40.7404 134.745 40.8634 134.764 40.9846C135.146 42.4076 135.801 43.6915 136.804 44.766C138.044 46.0941 139.587 46.7902 141.408 46.869C142.445 46.9141 143.465 46.8632 144.436 46.4772C147.299 45.3412 148.836 43.1768 149.25 40.1501C149.305 39.983 149.277 39.8102 149.277 39.6412C149.283 35.5076 149.286 31.3724 149.285 27.2357ZM147.104 35.5899C145.577 35.5361 144.037 35.706 142.518 35.4823C139.863 35.0876 137.763 33.8537 136.905 31.141C136.046 28.4283 136.513 25.9556 138.646 23.9679C139.949 22.7532 141.594 22.3845 143.312 22.3355C144.61 22.2952 145.909 22.3355 147.208 22.3134C147.534 22.3076 147.618 22.4017 147.616 22.7263C147.602 24.7956 147.609 26.865 147.609 28.9343C147.609 30.9883 147.594 33.0423 147.621 35.0963C147.627 35.5236 147.496 35.6023 147.104 35.5879V35.5899Z" fill="#085782"/>
<path fill-rule="evenodd" clip-rule="evenodd" d="M72.2862 26.1141C72.2862 25.4541 72.2862 24.7941 72.2862 24.134C72.2118 23.9718 72.2862 23.7893 72.2185 23.627C72.1832 23.4609 72.1393 23.2967 72.1135 23.1287C71.6212 19.9041 69.9972 17.3527 67.4934 15.3506C65.6423 13.868 63.4716 13.1718 61.1567 12.8703C60.9964 12.804 60.818 12.8828 60.6606 12.804L59.3925 12.7762C57.6883 12.7166 55.9832 12.7579 54.2791 12.757C54.2523 12.757 54.2266 12.7877 54.2008 12.804V37.158C54.8392 37.2847 55.4842 37.2079 56.1244 37.2079C57.5557 37.2079 58.987 37.2511 60.4182 37.1848C60.9487 37.1128 61.4821 37.1628 62.0174 37.0821C63.6509 36.8324 65.1814 36.3197 66.5879 35.4449C67.8541 34.6575 68.9733 33.701 69.8779 32.5017C71.2004 30.7531 71.9255 28.7692 72.2261 26.6105C72.2853 26.4521 72.2118 26.2716 72.2862 26.1141ZM64.5317 35.0704C63.2698 35.6286 61.9091 35.9248 60.5308 35.9413C59.0623 35.9692 57.5929 35.9413 56.1254 35.9624C55.7781 35.9682 55.6884 35.877 55.6903 35.5265C55.7036 32.0696 55.6979 28.6184 55.6979 25.1654C55.6979 21.7277 55.7056 18.289 55.6893 14.8513C55.6893 14.4605 55.7848 14.3548 56.1721 14.3712C57.7628 14.4268 59.3562 14.2905 60.943 14.4672C65.504 14.9684 69.9857 18.674 70.6412 23.8777C71.2509 28.7144 68.8245 33.1556 64.5317 35.0704Z" fill="#085782"/>
<path fill-rule="evenodd" clip-rule="evenodd" d="M109.161 28.484C109.093 27.9798 109.06 27.468 108.951 26.9725C108.392 24.4096 106.967 22.5323 104.546 21.4866C103.202 20.9105 101.769 20.7587 100.324 20.7117C98.5403 20.6493 96.756 20.6963 94.9726 20.6867C94.9173 20.6867 94.8925 20.7261 94.8572 20.752C94.8572 21.8554 94.8639 22.9606 94.8629 24.062C94.8629 31.5994 94.861 39.1361 94.8572 46.6721C95.3731 46.7821 95.9061 46.7821 96.422 46.6721C96.422 45.5064 96.4163 44.3406 96.422 43.1758C96.4271 41.1715 96.4338 39.1674 96.4421 37.1637C96.5995 37.0677 96.7712 37.1205 96.9363 37.1176C98.1586 37.0955 99.3819 37.1512 100.605 37.0878C101.102 37.0091 101.605 37.0648 102.11 36.9793C103.824 36.7058 105.417 35.9184 106.68 34.7199C108.222 33.2622 109.009 31.43 109.161 29.3146C109.204 29.0394 109.204 28.7592 109.161 28.484ZM105.076 34.1168C103.808 35.0924 102.33 35.4343 100.775 35.4737C99.4458 35.5073 98.1157 35.4737 96.7865 35.4948C96.4688 35.4996 96.4106 35.3911 96.4125 35.1001C96.4239 33 96.4182 30.899 96.4182 28.7999C96.4182 26.7306 96.4249 24.6612 96.4115 22.5919C96.4115 22.2529 96.4602 22.105 96.8514 22.1204C98.3781 22.178 99.9172 22.009 101.437 22.2308C103.951 22.5976 106.005 23.7029 107.029 26.1832C108.203 29.0294 107.356 32.3605 105.076 34.1168Z" fill="#085782"/>
<path fill-rule="evenodd" clip-rule="evenodd" d="M188.916 36.8977C188.916 33.0484 188.916 29.1987 188.916 25.3487C188.928 25.2406 188.918 25.1309 188.885 25.0271C188.625 23.5867 187.91 22.4286 186.698 21.6076C185.731 20.9527 184.624 20.7703 183.486 20.7126C183.32 20.6579 183.149 20.6848 182.981 20.6848C181.159 20.6848 179.337 20.6848 177.516 20.6848C177.192 20.6848 176.867 20.6848 176.544 20.6848C176.367 20.6848 176.286 20.7511 176.296 20.9297C176.323 21.3935 176.243 21.8592 176.34 22.3201L184.047 22.3364C184.237 22.4104 184.442 22.3134 184.627 22.4046C184.829 22.4431 185.028 22.498 185.222 22.5688C186.405 23.0979 187.098 24.0092 187.306 25.3007C187.358 25.6186 187.34 25.7933 186.915 25.7876C185.075 25.7597 183.235 25.7636 181.394 25.7789C179.46 25.7953 177.706 26.2149 176.301 27.7398C175.097 29.0448 174.69 30.5562 174.887 32.2328C175.029 33.4514 175.541 34.5797 176.31 35.5534C177.079 36.5271 178.084 37.1858 179.322 37.2146C182.507 37.2799 185.692 37.2549 188.877 37.2655C188.941 37.1464 188.916 37.0197 188.916 36.8977ZM186.985 35.8674C184.886 35.852 182.78 35.8587 180.677 35.8501C180.167 35.8443 179.659 35.7723 179.167 35.6359C177.259 35.1222 176.237 33.5839 176.386 31.4636C176.455 30.3649 176.933 29.3327 177.726 28.5739C178.518 27.815 179.566 27.3853 180.66 27.371C182.759 27.3432 184.866 27.371 186.968 27.3557C187.292 27.3557 187.35 27.4671 187.343 27.7551C187.33 29.0467 187.337 30.3382 187.337 31.6298C187.337 32.9213 187.329 34.2128 187.344 35.5034C187.347 35.7877 187.275 35.8693 186.985 35.8674Z" fill="#CD2227"/>
<path fill-rule="evenodd" clip-rule="evenodd" d="M240.058 36.8967C240.058 33.0481 240.058 29.1987 240.058 25.3487C240.07 25.2409 240.06 25.1315 240.027 25.028C239.767 23.5876 239.052 22.4286 237.84 21.6076C236.872 20.9527 235.765 20.7703 234.628 20.7126C234.462 20.6579 234.29 20.6848 234.123 20.6848C232.301 20.6848 230.479 20.6848 228.658 20.6848C228.334 20.6848 228.009 20.6848 227.685 20.6848C227.509 20.6848 227.427 20.7511 227.438 20.9297C227.464 21.3935 227.385 21.8592 227.481 22.3201C230.063 22.3201 232.646 22.3086 235.229 22.3268C236.042 22.3249 236.826 22.6317 237.424 23.1858C238.022 23.7399 238.39 24.5007 238.455 25.3161C238.486 25.6685 238.428 25.7905 238.039 25.7857C236.199 25.7639 234.359 25.7617 232.519 25.7789C230.572 25.7953 228.81 26.2283 227.41 27.7715C226.231 29.0707 225.832 30.5725 226.027 32.2318C226.171 33.4514 226.683 34.5787 227.452 35.5534C228.221 36.528 229.225 37.1858 230.463 37.2146C233.648 37.2799 236.834 37.2549 240.019 37.2655C240.082 37.1464 240.058 37.0197 240.058 36.8967ZM238.101 35.8674C236.044 35.852 233.988 35.8578 231.932 35.8539C231.39 35.8513 230.851 35.78 230.327 35.6417C228.418 35.1404 227.388 33.6069 227.527 31.4828C227.591 30.384 228.064 29.3498 228.853 28.5874C229.642 27.8251 230.688 27.391 231.782 27.372C233.9 27.3413 236.018 27.372 238.137 27.3566C238.445 27.3566 238.487 27.4699 238.484 27.735C238.473 29.0265 238.484 30.3181 238.484 31.6096C238.484 32.9011 238.474 34.1927 238.492 35.4842C238.491 35.7934 238.399 35.8693 238.101 35.8674Z" fill="#CD2227"/>
<path fill-rule="evenodd" clip-rule="evenodd" d="M91.592 28.3265C91.5118 28.169 91.592 27.9895 91.5252 27.8301C91.4821 27.6988 91.4467 27.5651 91.4193 27.4296C91.1721 25.7751 90.4279 24.352 89.302 23.1594C87.3402 21.0804 84.9328 20.172 82.0722 20.5379C79.5828 20.8557 77.6649 22.1031 76.2136 24.1196C75.3548 25.3065 74.9579 26.6566 74.8777 28.1105C74.831 28.6369 74.831 29.1665 74.8777 29.693C74.9412 30.7028 75.2026 31.69 75.6468 32.5977C76.5142 34.3886 77.8414 35.7387 79.6066 36.5885C81.4044 37.4747 83.4682 37.6462 85.386 37.0687C87.7543 36.3773 89.5109 34.9081 90.6636 32.711C91.3906 31.334 91.6139 29.8572 91.592 28.3265ZM83.2716 35.8712C80.3986 35.8856 76.3872 33.5561 76.433 28.942C76.4722 25.101 79.4148 22.0484 83.1771 22.0397C86.9175 22.0311 89.988 25.1125 90.0109 28.8911C90.03 32.01 87.6789 35.8491 83.2716 35.8712Z" fill="#085782"/>
<path fill-rule="evenodd" clip-rule="evenodd" d="M206.317 37.1628H204.746V21.1073H206.314L206.317 37.1628Z" fill="#CD2227"/>
<path fill-rule="evenodd" clip-rule="evenodd" d="M114.532 13.7815C114.532 13.9766 114.475 14.1674 114.368 14.3297C114.26 14.492 114.107 14.6186 113.928 14.6933C113.749 14.7681 113.552 14.7878 113.362 14.7499C113.172 14.7119 112.997 14.6181 112.86 14.4802C112.723 14.3423 112.629 14.1666 112.591 13.9753C112.553 13.7839 112.573 13.5856 112.647 13.4053C112.721 13.2251 112.847 13.071 113.008 12.9626C113.169 12.8542 113.358 12.7963 113.552 12.7963C113.812 12.7963 114.061 12.9001 114.245 13.0848C114.429 13.2696 114.532 13.5202 114.532 13.7815Z" fill="#0A5782"/>
<path fill-rule="evenodd" clip-rule="evenodd" d="M38.4045 25.6397V7.80108C36.0323 5.32899 33.1889 3.36394 30.0445 2.02351C26.9001 0.683092 23.5193 -0.00514884 20.1044 -1.92196e-05V21.8112C23.2198 23.0662 29.7607 25.245 38.4045 25.6397Z" fill="#CD2227"/>
<path fill-rule="evenodd" clip-rule="evenodd" d="M41.0104 40.0137C43.5742 36.3116 45.1071 31.9866 45.4501 27.4872C43.989 27.8454 42.5058 28.1053 41.0104 28.2651V40.0137Z" fill="#CD2227"/>
<path fill-rule="evenodd" clip-rule="evenodd" d="M20.1044 25.6993V51.001C23.5193 51.0061 26.9001 50.3179 30.0445 48.9774C33.1889 47.637 36.0323 45.672 38.4045 43.1999V28.46C33.5678 28.6607 27.4754 28.0384 20.1044 25.6993Z" fill="#CD2227"/>
<path fill-rule="evenodd" clip-rule="evenodd" d="M45.5036 24.4212C45.3064 19.6057 43.7476 14.9468 41.0104 10.992V25.7022C42.4664 25.7022 43.974 25.6551 45.5265 25.5399C48.075 25.5043 52.8297 24.4769 52.8297 24.4769C50.5521 24.8341 47.2573 24.595 45.5036 24.4212Z" fill="#CD2227"/>
<path fill-rule="evenodd" clip-rule="evenodd" d="M16.9261 0.178614V51C16.9261 51 8.71063 50.5458 3.67355 46.2237C3.67355 46.2237 6.33283 43.8 7.63623 39.5528C8.93963 35.3056 8.32323 33.22 7.29272 31.986C6.26222 30.7521 2.56766 27.3336 1.85394 22.7426C1.68887 21.8256 1.8215 21.2754 1.21942 21.6489C0.617333 22.0225 0.736604 21.8333 0.768092 21.0881C0.79958 20.343 0.53432 18.5569 0.141201 17.6082C-0.251918 16.6594 0.25761 15.9575 0.575349 16.0103C0.893089 16.0631 1.40453 16.3272 1.4341 16.0103C1.46368 15.6934 1.25854 1.60651 16.9261 0.178614Z" fill="#115883"/>
</g>
<defs>
<clipPath id="clip0">
<rect width="248" height="51" fill="white"/>
</clipPath>
</defs>
</svg>
